<mxfile host="app.diagrams.net" agent="Mozilla/5.0 (X11; Ubuntu; Linux x86_64; rv:136.0) Gecko/20100101 Firefox/136.0" version="26.2.5">
  <diagram name="PÃ¡gina-1" id="2qnP0dduen25vn1TyFO0">
    <mxGraphModel dx="1142" dy="662" grid="1" gridSize="10" guides="1" tooltips="1" connect="1" arrows="1" fold="1" page="1" pageScale="1" pageWidth="827" pageHeight="1169" math="0" shadow="0">
      <root>
        <mxCell id="0" />
        <mxCell id="1" parent="0" />
        <mxCell id="XqpjQX-0vQbm_1OPQOAR-4" value="Contato" style="swimlane;fontStyle=1;align=center;verticalAlign=top;childLayout=stackLayout;horizontal=1;startSize=26;horizontalStack=0;resizeParent=1;resizeParentMax=0;resizeLast=0;collapsible=1;marginBottom=0;whiteSpace=wrap;html=1;" vertex="1" parent="1">
          <mxGeometry x="510" y="160" width="160" height="90" as="geometry" />
        </mxCell>
        <mxCell id="XqpjQX-0vQbm_1OPQOAR-5" value="&lt;div&gt;- Nome: Str &lt;br&gt;&lt;/div&gt;&lt;div&gt;&lt;br&gt;&lt;/div&gt;- Telefone: Str" style="text;strokeColor=none;fillColor=none;align=left;verticalAlign=top;spacingLeft=4;spacingRight=4;overflow=hidden;rotatable=0;points=[[0,0.5],[1,0.5]];portConstraint=eastwest;whiteSpace=wrap;html=1;" vertex="1" parent="XqpjQX-0vQbm_1OPQOAR-4">
          <mxGeometry y="26" width="160" height="64" as="geometry" />
        </mxCell>
        <mxCell id="XqpjQX-0vQbm_1OPQOAR-8" value="Agenda" style="swimlane;fontStyle=1;align=center;verticalAlign=top;childLayout=stackLayout;horizontal=1;startSize=26;horizontalStack=0;resizeParent=1;resizeParentMax=0;resizeLast=0;collapsible=1;marginBottom=0;whiteSpace=wrap;html=1;" vertex="1" parent="1">
          <mxGeometry x="130" y="160" width="160" height="230" as="geometry" />
        </mxCell>
        <mxCell id="XqpjQX-0vQbm_1OPQOAR-9" value="Contatos -&amp;gt; [Contato]" style="text;strokeColor=none;fillColor=none;align=left;verticalAlign=top;spacingLeft=4;spacingRight=4;overflow=hidden;rotatable=0;points=[[0,0.5],[1,0.5]];portConstraint=eastwest;whiteSpace=wrap;html=1;" vertex="1" parent="XqpjQX-0vQbm_1OPQOAR-8">
          <mxGeometry y="26" width="160" height="64" as="geometry" />
        </mxCell>
        <mxCell id="XqpjQX-0vQbm_1OPQOAR-10" value="" style="line;strokeWidth=1;fillColor=none;align=left;verticalAlign=middle;spacingTop=-1;spacingLeft=3;spacingRight=3;rotatable=0;labelPosition=right;points=[];portConstraint=eastwest;strokeColor=inherit;" vertex="1" parent="XqpjQX-0vQbm_1OPQOAR-8">
          <mxGeometry y="90" width="160" height="8" as="geometry" />
        </mxCell>
        <mxCell id="XqpjQX-0vQbm_1OPQOAR-11" value="&lt;div&gt;Criar()&lt;/div&gt;&lt;div&gt;Listar()&lt;/div&gt;&lt;div&gt;Pesquisar(Nome - Str)&lt;/div&gt;&lt;div&gt;Editar(Nome - Str)&lt;/div&gt;&lt;div&gt;Remover(Nome - Str)&lt;/div&gt;&lt;div&gt;Sair()&lt;/div&gt;&lt;div&gt;Loop()&lt;/div&gt;&lt;div&gt;Existe(Nome: Str) : bool&lt;/div&gt;" style="text;strokeColor=none;fillColor=none;align=left;verticalAlign=top;spacingLeft=4;spacingRight=4;overflow=hidden;rotatable=0;points=[[0,0.5],[1,0.5]];portConstraint=eastwest;whiteSpace=wrap;html=1;" vertex="1" parent="XqpjQX-0vQbm_1OPQOAR-8">
          <mxGeometry y="98" width="160" height="132" as="geometry" />
        </mxCell>
        <mxCell id="XqpjQX-0vQbm_1OPQOAR-13" value="1" style="endArrow=open;html=1;endSize=12;startArrow=diamondThin;startSize=14;startFill=0;edgeStyle=orthogonalEdgeStyle;align=left;verticalAlign=bottom;rounded=0;entryX=0;entryY=0.111;entryDx=0;entryDy=0;entryPerimeter=0;exitX=0.985;exitY=0.05;exitDx=0;exitDy=0;exitPerimeter=0;" edge="1" parent="1" source="XqpjQX-0vQbm_1OPQOAR-8" target="XqpjQX-0vQbm_1OPQOAR-4">
          <mxGeometry x="-1" y="3" relative="1" as="geometry">
            <mxPoint x="310" y="170" as="sourcePoint" />
            <mxPoint x="450" y="170" as="targetPoint" />
          </mxGeometry>
        </mxCell>
      </root>
    </mxGraphModel>
  </diagram>
</mxfile>
